<?xml version="1.0" standalone="no"?>
<!DOCTYPE svg PUBLIC "-//W3C//DTD SVG 20010904//EN"
 "http://www.w3.org/TR/2001/REC-SVG-20010904/DTD/svg10.dtd">
<svg version="1.0" xmlns="http://www.w3.org/2000/svg"
 width="1389.000000pt" height="1389.000000pt" viewBox="0 0 1389.000000 1389.000000"
 preserveAspectRatio="xMidYMid meet">

<g transform="translate(0.000000,1389.000000) scale(0.100000,-0.100000)"
fill="#000000" stroke="none">
<path d="M6298 9633 c6 -2 18 -2 25 0 6 3 1 5 -13 5 -14 0 -19 -2 -12 -5z"/>
<path d="M7503 9521 c-224 -123 -393 -362 -427 -601 -5 -32 4 -16 28 56 83
244 196 392 402 525 35 23 64 49 52 49 -2 0 -27 -13 -55 -29z"/>
<path d="M5775 9501 c-91 -36 -245 -113 -245 -122 0 -5 35 8 78 28 42 19 129
55 192 79 91 34 108 43 80 43 -19 0 -66 -12 -105 -28z"/>
<path d="M7060 8737 c0 -47 13 -53 46 -22 14 13 30 22 35 19 5 -3 6 2 3 10 -3
9 -14 16 -23 16 -9 0 -26 3 -38 6 -21 6 -23 3 -23 -29z"/>
<path d="M6145 8681 c-19 -8 -19 -8 3 -20 25 -13 42 -7 42 15 0 15 -14 17 -45
5z"/>
<path d="M7830 5803 c8 -12 16 -20 20 -19 8 4 39 -32 33 -38 -4 -3 1 -6 11 -6
9 0 14 -4 11 -10 -3 -5 -1 -10 5 -10 6 0 30 -19 54 -42 68 -67 165 -151 199
-172 l32 -20 -35 38 c-79 86 -194 188 -304 271 -33 25 -37 26 -26 8z"/>
<path d="M8261 5374 c-29 -37 -26 -46 9 -26 30 17 38 36 21 47 -5 3 -19 -7
-30 -21z"/>
</g>
</svg>
